<?xml version="1.0" encoding="UTF-8"?>
<svg width="800px" height="800px" viewBox="0 0 800 800" version="1.1" xmlns="http://www.w3.org/2000/svg">
    <title>PAC-MAN</title>
    <g id="PAC-MAN" stroke="none" stroke-width="1" fill="none" fill-rule="evenodd">
        <!-- Pac-Man Body -->
        <path d="M400,100 C567.025,100 703.463,236.438 703.463,403.463 C703.463,570.488 567.025,706.926 400,706.926 C232.975,706.926 96.5366,570.488 96.5366,403.463 C96.5366,236.438 232.975,100 400,100 Z" id="Pac-Man-Body" fill="#FFEB3B"></path>
        
        <!-- Pac-Man Mouth -->
        <path d="M400,100 L400,403.463 L703.463,403.463 C703.463,236.438 567.025,100 400,100 Z" id="Pac-Man-Mouth" fill="#000000"></path>
        
        <!-- Pac-Man Eye -->
        <circle id="Pac-Man-Eye" fill="#000000" cx="510" cy="210" r="30"></circle>
        
        <!-- Ghost Body -->
        <path d="M100,300 C100,228.203 158.203,170 230,170 C301.797,170 360,228.203 360,300 L360,425 C360,425 330,405 300,425 C270,445 240,425 240,425 C240,425 210,445 180,425 C150,405 120,425 120,425 L120,300 L100,300 Z" id="Ghost-Body" fill="#F44336" transform="translate(230, 300) scale(0.7)"></path>
        
        <!-- Ghost Eyes -->
        <circle id="Ghost-Eye-Left" fill="#FFFFFF" cx="192" cy="250" r="20"></circle>
        <circle id="Ghost-Eye-Right" fill="#FFFFFF" cx="268" cy="250" r="20"></circle>
        
        <!-- Ghost Pupils -->
        <circle id="Ghost-Pupil-Left" fill="#000000" cx="200" cy="250" r="10"></circle>
        <circle id="Ghost-Pupil-Right" fill="#000000" cx="276" cy="250" r="10"></circle>
        
        <!-- Dots -->
        <circle id="Dot-1" fill="#FFFFFF" cx="450" cy="500" r="15"></circle>
        <circle id="Dot-2" fill="#FFFFFF" cx="525" cy="500" r="15"></circle>
        <circle id="Dot-3" fill="#FFFFFF" cx="600" cy="500" r="15"></circle>
        <circle id="Power-Pellet" fill="#FFFFFF" cx="675" cy="500" r="30"></circle>
    </g>
</svg>